<?xml version="1.0" encoding="UTF-8" standalone="no"?>
<!-- Created with Inkscape (http://www.inkscape.org/) -->

<svg
   xmlns:dc="http://purl.org/dc/elements/1.1/"
   xmlns:cc="http://creativecommons.org/ns#"
   xmlns:rdf="http://www.w3.org/1999/02/22-rdf-syntax-ns#"
   xmlns:svg="http://www.w3.org/2000/svg"
   xmlns="http://www.w3.org/2000/svg"
   xmlns:sodipodi="http://sodipodi.sourceforge.net/DTD/sodipodi-0.dtd"
   xmlns:inkscape="http://www.inkscape.org/namespaces/inkscape"
   version="1.1"
   width="24"
   height="24"
   id="svg4460"
   inkscape:version="0.91 r13725"
   sodipodi:docname="marker-24-ff7f00.svg">
  <sodipodi:namedview
     pagecolor="#ffffff"
     bordercolor="#666666"
     borderopacity="1"
     objecttolerance="10"
     gridtolerance="10"
     guidetolerance="10"
     inkscape:pageopacity="0"
     inkscape:pageshadow="2"
     inkscape:window-width="1482"
     inkscape:window-height="833"
     id="namedview5088"
     showgrid="false"
     inkscape:snap-global="true"
     inkscape:zoom="10.694915"
     inkscape:cx="7"
     inkscape:cy="15.5"
     inkscape:window-x="76"
     inkscape:window-y="62"
     inkscape:window-maximized="0"
     inkscape:current-layer="svg4460" />
  <defs
     id="defs4462" />
  <metadata
     id="metadata4465">
    <rdf:RDF>
      <cc:Work
         rdf:about="">
        <dc:format>image/svg+xml</dc:format>
        <dc:type
           rdf:resource="http://purl.org/dc/dcmitype/StillImage" />
        <dc:title />
      </cc:Work>
    </rdf:RDF>
  </metadata>
  <g
     id="g5427"
     transform="matrix(1.25,0,0,1.25,-16.186092,-2.9096956)">
    <g
       transform="translate(0,-1028.3622)"
       id="layer1-6">
      <g
         transform="translate(72,-46)"
         id="circle-24"
         style="display:inline">
        <g
           inkscape:groupmode="layer"
           id="layer2"
           inkscape:label="circle" />
        <g
           transform="matrix(-1,0,0,1,-108,70.000002)"
           id="g11227">
          <path
             d="m -50.074789,1016.3387 c 0,4.6945 -3.805598,8.5001 -8.500042,8.5001 -4.694443,0 -8.500042,-3.8056 -8.500042,-8.5001 0,-4.6944 3.805599,-8.5 8.500042,-8.5 4.694444,0 8.500042,3.8056 8.500042,8.5 z"
             id="path8568"
             style="color:#000000;display:inline;overflow:visible;visibility:visible;opacity:0.66000001;fill:#ffffff;fill-opacity:1;fill-rule:nonzero;stroke:#ffffff;stroke-width:2;stroke-miterlimit:4;stroke-dasharray:none;marker:none;enable-background:accumulate"
             inkscape:connector-curvature="0" />
          <path
             d="m -50.074789,1016.3388 c 0,4.6945 -3.805618,8.5001 -8.500084,8.5001 -4.694467,0 -8.500084,-3.8056 -8.500084,-8.5001 0,-4.6945 3.805617,-8.5001 8.500084,-8.5001 4.694466,0 8.500084,3.8056 8.500084,8.5001 z"
             id="path8564"
             style="color:#000000;display:inline;overflow:visible;visibility:visible;fill:#ff7f00;fill-opacity:1;fill-rule:nonzero;stroke:none;stroke-width:2;marker:none;enable-background:accumulate"
             inkscape:connector-curvature="0" />
        </g>
      </g>
    </g>
  </g>
  <g
     transform="matrix(0.8325,0,0,0.8325,1.6262485,-854.04053)"
     id="layer1">
    <g
       transform="translate(72,-262)"
       id="marker-24"
       style="display:inline">
      <g
         transform="translate(0,33)"
         id="g15422">
        <g
           transform="translate(-173.99314,956.00001)"
           id="marker-15-7-6-8-1"
           style="display:inline">
          <path
             d="m 120.99314,310.86219 c 0,3.5 -5,9.5 -6.5,11.5 -1.5,-2 -6.5,-8 -6.5,-11.5 0,-3.5 3.27126,-6.5 6.5,-6.5 3.22874,0 6.5,3 6.5,6.5 z"
             inkscape:connector-curvature="0"
             id="path7962-4-3-5-3"
             style="color:#000000;display:inline;overflow:visible;visibility:visible;fill:#ffffff;fill-opacity:1;fill-rule:nonzero;stroke:none;stroke-width:2;marker:none;enable-background:accumulate" />
        </g>
      </g>
    </g>
  </g>
</svg>
